<svg width="350" height="500" viewBox="0 0 350 500" fill="none" xmlns="http://www.w3.org/2000/svg">
	<path d="M0 110C0 87.9086 17.9086 70 40 70H310C332.091 70 350 87.9086 350 110V110H0V110Z" fill="black"/>
	<path d="M100 70C100 47.9086 117.909 30 140 30H210C232.091 30 250 47.9086 250 70V70H100V70Z" fill="black"/>
	<path d="M25.7257 466.583L0 119H44L70.6987 456.504C71.3158 464.305 77.8264 470.321 85.6519 470.321H95.2566C103.826 470.321 110.653 463.155 110.239 454.596L94 119H152.375V455.321C152.375 463.605 159.091 470.321 167.375 470.321H175V499H60.6303C42.3025 499 27.0785 484.861 25.7257 466.583Z" fill="black"/>
	<path d="M324.274 466.583L350 119H306L279.301 456.504C278.684 464.305 272.174 470.321 264.348 470.321H254.743C246.174 470.321 239.347 463.155 239.761 454.596L256 119H197.625V455.321C197.625 463.605 190.909 470.321 182.625 470.321H175V499H289.37C307.697 499 322.921 484.861 324.274 466.583Z" fill="black"/>
</svg>
