<svg width="232" height="150" viewBox="0 0 232 150" fill="none" xmlns="http://www.w3.org/2000/svg">
        
                            
                            <g class="izquierdoE">
                            <circle cx="30" cy="40" r="25" fill="black" fill-opacity="0.1"/>
                            <path d="M0 90C0 76.1929 11.1929 65 25 65H35C48.8071 65 60 76.1929 60 90V125H0V90Z" fill="black" fill-opacity="0.1"/>
                            </g>
                            <g class="derechoE">
                            <circle cx="202" cy="40" r="25" fill="black" fill-opacity="0.1"/>
                            <path d="M172 90C172 76.1929 183.193 65 197 65H207C220.807 65 232 76.1929 232 90V125H172V90Z" fill="black" fill-opacity="0.1"/>
                            </g>
                            <g class="principalE">
                            <circle cx="116" cy="50" r="25" fill="white"/>
                            <path d="M86 100C86 86.1929 97.1929 75 111 75H121C134.807 75 146 86.1929 146 100V135H86V100Z" fill="white"/>
                            </g>
</svg>