<svg width="100" height="100" viewBox="0 0 100 100" fill="none" xmlns="http://www.w3.org/2000/svg">
<path d="M29 10C29 5.58172 32.5817 2 37 2H90C94.4183 2 98 5.58172 98 10V90C98 94.4183 94.4183 98 90 98H37C32.5817 98 29 94.4183 29 90V10Z" fill="black"/>
<path d="M40 17C40 14.7909 41.7909 13 44 13H84C86.2091 13 88 14.7909 88 17V83C88 85.2091 86.2091 87 84 87H44C41.7909 87 40 85.2091 40 83V17Z" fill="#008000"/>
<rect x="29" y="39" width="15" height="22" fill="#008000"/>
<path d="M2.87868 47.8787C1.70711 49.0503 1.70711 50.9497 2.87868 52.1213L21.9706 71.2132C23.1421 72.3848 25.0416 72.3848 26.2132 71.2132C27.3848 70.0416 27.3848 68.1421 26.2132 66.9706L9.24264 50L26.2132 33.0294C27.3848 31.8579 27.3848 29.9584 26.2132 28.7868C25.0416 27.6152 23.1421 27.6152 21.9706 28.7868L2.87868 47.8787ZM62 47L5 47V53L62 53V47Z" fill="black"/>
<path d="M11 45H58C60.7614 45 63 47.2386 63 50V50C63 52.7614 60.7614 55 58 55H11V45Z" fill="black"/>
</svg>
