<svg width="200" height="150" viewBox="0 0 200 150" fill="none" xmlns="http://www.w3.org/2000/svg">
<path d="M150 56C150 83.6142 127.614 106 100 106C72.3858 106 50 83.6142 50 56C50 28.3858 72.3858 6 100 6C127.614 6 150 28.3858 150 56ZM55 56C55 80.8528 75.1472 101 100 101C124.853 101 145 80.8528 145 56C145 31.1472 124.853 11 100 11C75.1472 11 55 31.1472 55 56Z" fill="white"/>
<circle cx="99.5" cy="55.5" r="42.5" fill="white"/>
<rect x="100" y="54" width="36" height="4" fill="#008000"/>
<rect x="100" y="53" width="18" height="6" fill="#008000"/>
<rect x="43" y="132" width="114" height="13" fill="white"/>
<rect x="3" y="119" width="54" height="30" rx="5" fill="#008000"/>
<rect x="43" y="109" width="114" height="20" fill="white"/>
</svg>
