<svg  viewBox="104 0 200 150" fill="none" xmlns="http://www.w3.org/2000/svg">
    <rect class="texto1D" y="15" width="100" height="15" fill="black" fill-opacity="0.5"/>
    <rect class="texto5D" x="52" y="113" width="48" height="15" fill="black" fill-opacity="0.5"/>
    <rect class="texto4D" y="84" width="29" height="15" fill="black" fill-opacity="0.5"/>
    <rect class="texto3D" y="61" width="83" height="15" fill="black" fill-opacity="0.5"/>
    <rect class="texto2D" y="38" width="52" height="15" fill="black" fill-opacity="0.5"/>
    <circle class="sombraD" cx="204.5" cy="75.5" r="52.5" fill="black" fill-opacity="0.45"/>
    <circle cx="204.5" cy="75.5" r="52.5" fill="white"/>
    <path class="dinero" d="M210.688 85.0312C210.688 83.3229 210.208 81.9688 209.25 80.9688C208.312 79.9479 206.708 79.0104 204.438 78.1562C202.167 77.3021 200.208 76.4583 198.562 75.625C196.917 74.7708 195.5 73.8021 194.312 72.7188C193.146 71.6146 192.229 70.3229 191.562 68.8438C190.917 67.3646 190.594 65.6042 190.594 63.5625C190.594 60.0417 191.719 57.1562 193.969 54.9062C196.219 52.6562 199.208 51.3438 202.938 50.9688V44.2812H207.938V51.0625C211.625 51.5833 214.51 53.125 216.594 55.6875C218.677 58.2292 219.719 61.5312 219.719 65.5938H210.688C210.688 63.0938 210.167 61.2292 209.125 60C208.104 58.75 206.729 58.125 205 58.125C203.292 58.125 201.969 58.6146 201.031 59.5938C200.094 60.5521 199.625 61.8854 199.625 63.5938C199.625 65.1771 200.083 66.4479 201 67.4062C201.917 68.3646 203.615 69.3438 206.094 70.3438C208.594 71.3438 210.646 72.2917 212.25 73.1875C213.854 74.0625 215.208 75.0625 216.312 76.1875C217.417 77.2917 218.26 78.5625 218.844 80C219.427 81.4167 219.719 83.0729 219.719 84.9688C219.719 88.5104 218.615 91.3854 216.406 93.5938C214.198 95.8021 211.156 97.1042 207.281 97.5V103.719H202.312V97.5312C198.042 97.0729 194.729 95.5625 192.375 93C190.042 90.4167 188.875 86.9896 188.875 82.7188H197.906C197.906 85.1979 198.49 87.1042 199.656 88.4375C200.844 89.75 202.542 90.4062 204.75 90.4062C206.583 90.4062 208.031 89.9271 209.094 88.9688C210.156 87.9896 210.688 86.6771 210.688 85.0312Z" fill="#008000"/>
</svg>