<svg width="100" height="100" viewBox="0 0 100 100" fill="none" xmlns="http://www.w3.org/2000/svg">
<circle id="Ellipse 1" cx="50" cy="50" r="45" fill="#008000"/>
<g id="LapizSombra">
<path id="Polygon 1" d="M24.3015 82.6985L31.0258 57.603L49.397 75.9742L24.3015 82.6985Z" fill="black" fill-opacity="0.45"/>
<rect id="Rectangle 2" x="44.8076" y="69.2635" width="10" height="45" transform="rotate(-135 44.8076 69.2635)" fill="black" fill-opacity="0.45"/>
<rect id="Rectangle 3" x="50.4645" y="74.9203" width="5" height="45" transform="rotate(-135 50.4645 74.9203)" fill="black" fill-opacity="0.45"/>
<rect id="Rectangle 4" x="35.6152" y="60.0711" width="5" height="45" transform="rotate(-135 35.6152 60.0711)" fill="black" fill-opacity="0.45"/>
<path id="Ellipse 2" d="M65.3137 23.3015C67.7517 20.8635 71.0583 19.4939 74.5061 19.4939C77.9539 19.4939 81.2605 20.8635 83.6985 23.3015C86.1365 25.7395 87.5061 29.0461 87.5061 32.4939C87.5061 35.9417 86.1365 39.2483 83.6985 41.6863L74.5061 32.4939L65.3137 23.3015Z" fill="black" fill-opacity="0.45"/>
</g>
<g id="Lapiz">
<path id="Polygon 1_2" d="M20.3015 78.6985L27.0258 53.603L45.397 71.9742L20.3015 78.6985Z" fill="white"/>
<rect id="Rectangle 2_2" x="40.8076" y="65.2635" width="10" height="45" transform="rotate(-135 40.8076 65.2635)" fill="white"/>
<rect id="Rectangle 3_2" x="46.4645" y="70.9203" width="5" height="45" transform="rotate(-135 46.4645 70.9203)" fill="white"/>
<rect id="Rectangle 4_2" x="31.6152" y="56.0711" width="5" height="45" transform="rotate(-135 31.6152 56.0711)" fill="white"/>
<path id="Ellipse 2_2" d="M61.3137 19.3015C63.7517 16.8635 67.0583 15.4939 70.5061 15.4939C73.9539 15.4939 77.2605 16.8635 79.6985 19.3015C82.1365 21.7395 83.5061 25.0461 83.5061 28.4939C83.5061 31.9417 82.1365 35.2483 79.6985 37.6863L70.5061 28.4939L61.3137 19.3015Z" fill="white"/>
</g>
</svg>
